# 3ds Max Wavefront OBJ Exporter v0.97b - (c)2007 guruware
# File Created: 03.10.2017 12:07:21

mtllib Arrow.mtl

#
# object Star001
#

v  0.5409 0.0741 0.5477
v  -0.0000 0.0741 -0.8245
v  -0.0000 0.0772 -0.8235
v  0.5405 0.0772 0.5478
v  -0.0000 0.0800 -0.8208
v  0.5396 0.0800 0.5482
v  -0.0000 0.0825 -0.8164
v  0.5381 0.0825 0.5488
v  -0.0000 0.0846 -0.8108
v  0.5362 0.0846 0.5496
v  -0.0000 0.0862 -0.8040
v  0.5339 0.0862 0.5505
v  -0.0000 0.0872 -0.7963
v  0.5312 0.0872 0.5515
v  -0.0000 0.0876 -0.7879
v  0.5284 0.0876 0.5526
v  0.0000 0.0876 -0.3836
v  0.3904 0.0876 0.6070
v  0.0000 0.0872 -0.3752
v  0.3876 0.0872 0.6081
v  0.0000 0.0862 -0.3675
v  0.3849 0.0862 0.6092
v  0.0000 0.0846 -0.3607
v  0.3826 0.0846 0.6101
v  0.0000 0.0825 -0.3550
v  0.3807 0.0825 0.6108
v  0.0000 0.0800 -0.3507
v  0.3792 0.0800 0.6114
v  0.0000 0.0772 -0.3479
v  0.3783 0.0772 0.6118
v  0.0000 0.0741 -0.3470
v  0.3779 0.0741 0.6119
v  0.0000 -0.0741 -0.3470
v  0.3779 -0.0741 0.6119
v  0.0000 -0.0772 -0.3479
v  0.3783 -0.0772 0.6118
v  0.0000 -0.0800 -0.3507
v  0.3792 -0.0800 0.6114
v  0.0000 -0.0825 -0.3550
v  0.3807 -0.0825 0.6108
v  0.0000 -0.0846 -0.3607
v  0.3826 -0.0846 0.6101
v  0.0000 -0.0862 -0.3675
v  0.3849 -0.0862 0.6092
v  0.0000 -0.0872 -0.3752
v  0.3876 -0.0872 0.6081
v  0.0000 -0.0876 -0.3836
v  0.3904 -0.0876 0.6070
v  -0.0000 -0.0876 -0.7879
v  0.5284 -0.0876 0.5526
v  -0.0000 -0.0872 -0.7963
v  0.5312 -0.0872 0.5515
v  -0.0000 -0.0862 -0.8040
v  0.5339 -0.0862 0.5505
v  -0.0000 -0.0846 -0.8108
v  0.5362 -0.0846 0.5496
v  -0.0000 -0.0825 -0.8164
v  0.5381 -0.0825 0.5488
v  -0.0000 -0.0800 -0.8208
v  0.5396 -0.0800 0.5482
v  -0.0000 -0.0772 -0.8235
v  0.5405 -0.0772 0.5478
v  -0.0000 -0.0741 -0.8245
v  0.5409 -0.0741 0.5477
v  -0.5409 0.0741 0.5477
v  -0.5405 0.0772 0.5478
v  -0.5396 0.0800 0.5482
v  -0.5381 0.0825 0.5488
v  -0.5362 0.0846 0.5496
v  -0.5339 0.0862 0.5505
v  -0.5312 0.0872 0.5515
v  -0.5284 0.0876 0.5526
v  -0.3904 0.0876 0.6070
v  -0.3876 0.0872 0.6081
v  -0.3849 0.0862 0.6092
v  -0.3826 0.0846 0.6101
v  -0.3807 0.0825 0.6108
v  -0.3792 0.0800 0.6114
v  -0.3783 0.0772 0.6118
v  -0.3779 0.0741 0.6119
v  -0.3779 -0.0741 0.6119
v  -0.3783 -0.0772 0.6118
v  -0.3792 -0.0800 0.6114
v  -0.3807 -0.0825 0.6108
v  -0.3826 -0.0846 0.6101
v  -0.3849 -0.0862 0.6092
v  -0.3876 -0.0872 0.6081
v  -0.3904 -0.0876 0.6070
v  -0.5284 -0.0876 0.5526
v  -0.5312 -0.0872 0.5515
v  -0.5339 -0.0862 0.5505
v  -0.5362 -0.0846 0.5496
v  -0.5381 -0.0825 0.5488
v  -0.5396 -0.0800 0.5482
v  -0.5405 -0.0772 0.5478
v  -0.5409 -0.0741 0.5477
# 96 vertices

vn 0.9230 0.0413 0.3826
vn -0.0000 0.1398 -0.9902
vn -0.0000 0.4594 -0.8883
vn 0.9125 0.1661 0.3737
vn 0.0000 0.7480 -0.6636
vn 0.8609 0.3211 0.3947
vn 0.0000 0.8828 -0.4698
vn 0.7804 0.4568 0.4269
vn 0.0000 0.9454 -0.3258
vn 0.6756 0.5696 0.4682
vn 0.0000 0.9769 -0.2139
vn 0.5491 0.6562 0.5176
vn 0.0000 0.9929 -0.1191
vn 0.4048 0.7119 0.5738
vn 0.0000 0.9993 -0.0372
vn 0.2931 0.7184 0.6309
vn 0.0000 1.0000 0.0051
vn 0.2162 0.7184 0.6612
vn -0.0000 0.9986 0.0529
vn 0.0956 0.7120 0.6957
vn -0.0000 0.9898 0.1425
vn -0.0482 0.6561 0.7531
vn -0.0000 0.9698 0.2438
vn -0.1744 0.5695 0.8033
vn -0.0000 0.9288 0.3707
vn -0.2793 0.4568 0.8446
vn -0.0000 0.8361 0.5486
vn -0.3600 0.3211 0.8760
vn -0.0000 0.5890 0.8082
vn -0.4121 0.1661 0.8958
vn -0.0000 0.1674 0.9859
vn -0.4138 0.0413 0.9094
vn 0.0002 -0.1674 0.9859
vn -0.4137 -0.0413 0.9095
vn -0.0000 -0.5890 0.8082
vn -0.4122 -0.1661 0.8958
vn -0.0000 -0.8361 0.5486
vn -0.3600 -0.3211 0.8759
vn -0.0000 -0.9288 0.3707
vn -0.2794 -0.4568 0.8445
vn -0.0000 -0.9698 0.2438
vn -0.1744 -0.5695 0.8033
vn -0.0000 -0.9898 0.1425
vn -0.0483 -0.6561 0.7531
vn -0.0000 -0.9986 0.0529
vn 0.0956 -0.7119 0.6957
vn 0.0000 -1.0000 0.0051
vn 0.2162 -0.7184 0.6612
vn 0.0000 -0.9993 -0.0372
vn 0.2931 -0.7184 0.6309
vn 0.0000 -0.9929 -0.1191
vn 0.4048 -0.7120 0.5738
vn 0.0000 -0.9769 -0.2139
vn 0.5491 -0.6562 0.5175
vn 0.0000 -0.9454 -0.3258
vn 0.6756 -0.5695 0.4682
vn 0.0000 -0.8828 -0.4698
vn 0.7805 -0.4568 0.4269
vn 0.0000 -0.7480 -0.6636
vn 0.8609 -0.3211 0.3947
vn -0.0000 -0.4594 -0.8883
vn 0.9125 -0.1661 0.3737
vn -0.0002 -0.1398 -0.9902
vn 0.9230 -0.0413 0.3826
vn -0.9230 0.0413 0.3826
vn -0.9125 0.1661 0.3738
vn -0.8609 0.3211 0.3947
vn -0.7804 0.4568 0.4269
vn -0.6756 0.5696 0.4682
vn -0.5491 0.6562 0.5176
vn -0.4048 0.7119 0.5738
vn -0.2931 0.7184 0.6309
vn -0.2162 0.7184 0.6612
vn -0.0956 0.7119 0.6957
vn 0.0483 0.6561 0.7531
vn 0.1744 0.5696 0.8032
vn 0.2793 0.4568 0.8446
vn 0.3600 0.3211 0.8759
vn 0.4121 0.1661 0.8958
vn 0.4137 0.0413 0.9095
vn 0.4136 -0.0413 0.9095
vn 0.4122 -0.1661 0.8958
vn 0.3600 -0.3211 0.8759
vn 0.2793 -0.4568 0.8446
vn 0.1744 -0.5696 0.8032
vn 0.0483 -0.6562 0.7531
vn -0.0956 -0.7119 0.6957
vn -0.2162 -0.7184 0.6612
vn -0.2931 -0.7184 0.6309
vn -0.4048 -0.7119 0.5739
vn -0.5492 -0.6561 0.5176
vn -0.6756 -0.5695 0.4682
vn -0.7805 -0.4568 0.4268
vn -0.8609 -0.3211 0.3947
vn -0.9126 -0.1661 0.3737
vn -0.9230 -0.0413 0.3827
# 96 vertex normals

o Star001
g Star001
usemtl 01___Default
s 257
f 1//1 2//2 3//3 4//4 
s 515
f 4//4 3//3 5//5 6//6 
s 1026
f 6//6 5//5 7//7 8//8 
s 514
f 8//8 7//7 9//9 10//10 
s 1026
f 10//10 9//9 11//11 12//12 
s 514
f 12//12 11//11 13//13 14//14 
s 1026
f 14//14 13//13 15//15 16//16 
s 516
f 16//16 15//15 17//17 18//18 
s 1026
f 18//18 17//17 19//19 20//20 
s 514
f 20//20 19//19 21//21 22//22 
s 1026
f 22//22 21//21 23//23 24//24 
s 514
f 24//24 23//23 25//25 26//26 
s 1026
f 26//26 25//25 27//27 28//28 
s 514
f 28//28 27//27 29//29 30//30 
s 1026
f 30//30 29//29 31//31 32//32 
s 516
f 32//32 31//31 33//33 34//34 
s 1026
f 34//34 33//33 35//35 36//36 
s 514
f 36//36 35//35 37//37 38//38 
s 1026
f 38//38 37//37 39//39 40//40 
s 514
f 40//40 39//39 41//41 42//42 
s 1026
f 42//42 41//41 43//43 44//44 
s 514
f 44//44 43//43 45//45 46//46 
s 1026
f 46//46 45//45 47//47 48//48 
s 516
f 48//48 47//47 49//49 50//50 
s 1026
f 50//50 49//49 51//51 52//52 
s 514
f 52//52 51//51 53//53 54//54 
s 1026
f 54//54 53//53 55//55 56//56 
s 514
f 56//56 55//55 57//57 58//58 
s 1026
f 58//58 57//57 59//59 60//60 
s 514
f 60//60 59//59 61//61 62//62 
s 1026
f 62//62 61//61 63//63 64//64 
s 516
f 64//64 63//63 2//2 1//1 
s 264
f 2//2 65//65 66//66 3//3 
s 536
f 3//3 66//66 67//67 5//5 
s 1040
f 5//5 67//67 68//68 7//7 
s 528
f 7//7 68//68 69//69 9//9 
s 1040
f 9//9 69//69 70//70 11//11 
s 528
f 11//11 70//70 71//71 13//13 
s 1040
f 13//13 71//71 72//72 15//15 
s 544
f 15//15 72//72 73//73 17//17 
s 1040
f 17//17 73//73 74//74 19//19 
s 528
f 19//19 74//74 75//75 21//21 
s 1040
f 21//21 75//75 76//76 23//23 
s 528
f 23//23 76//76 77//77 25//25 
s 1040
f 25//25 77//77 78//78 27//27 
s 528
f 27//27 78//78 79//79 29//29 
s 1040
f 29//29 79//79 80//80 31//31 
s 544
f 31//31 80//80 81//81 33//33 
s 1040
f 33//33 81//81 82//82 35//35 
s 528
f 35//35 82//82 83//83 37//37 
s 1040
f 37//37 83//83 84//84 39//39 
s 528
f 39//39 84//84 85//85 41//41 
s 1040
f 41//41 85//85 86//86 43//43 
s 528
f 43//43 86//86 87//87 45//45 
s 1040
f 45//45 87//87 88//88 47//47 
s 544
f 47//47 88//88 89//89 49//49 
s 1040
f 49//49 89//89 90//90 51//51 
s 528
f 51//51 90//90 91//91 53//53 
s 1040
f 53//53 91//91 92//92 55//55 
s 528
f 55//55 92//92 93//93 57//57 
s 1040
f 57//57 93//93 94//94 59//59 
s 528
f 59//59 94//94 95//95 61//61 
s 1040
f 61//61 95//95 96//96 63//63 
s 544
f 63//63 96//96 65//65 2//2 
s 2147483648
f 60//60 62//62 64//64 58//58 
f 56//56 58//58 64//64 54//54 
f 52//52 54//54 64//64 50//50 
f 48//48 50//50 64//64 1//1 
f 46//46 48//48 1//1 44//44 
f 42//42 44//44 1//1 40//40 
f 38//38 40//40 1//1 36//36 
f 34//34 36//36 1//1 32//32 
f 30//30 32//32 1//1 28//28 
f 26//26 28//28 1//1 24//24 
f 22//22 24//24 1//1 20//20 
f 18//18 20//20 1//1 16//16 
f 14//14 16//16 1//1 4//4 
f 12//12 14//14 4//4 6//6 
f 12//12 6//6 8//8 10//10 
f 94//94 93//93 96//96 95//95 
f 92//92 91//91 96//96 93//93 
f 90//90 89//89 96//96 91//91 
f 88//88 65//65 96//96 89//89 
f 87//87 86//86 65//65 88//88 
f 85//85 84//84 65//65 86//86 
f 83//83 82//82 65//65 84//84 
f 81//81 80//80 65//65 82//82 
f 79//79 78//78 65//65 80//80 
f 77//77 76//76 65//65 78//78 
f 75//75 74//74 65//65 76//76 
f 73//73 72//72 65//65 74//74 
f 71//71 66//66 65//65 72//72 
f 70//70 67//67 66//66 71//71 
f 70//70 69//69 68//68 67//67 
# 94 polygons

